<?xml version="1.0" encoding="utf-8"?>
<!-- Generator: Adobe Illustrator 26.2.1, SVG Export Plug-In . SVG Version: 6.00 Build 0)  -->
<svg version="1.1" id="Warstwa_1" xmlns="http://www.w3.org/2000/svg" xmlns:xlink="http://www.w3.org/1999/xlink" x="0px" y="0px"
	 viewBox="0 0 300 183.6" style="enable-background:new 0 0 300 183.6;" xml:space="preserve">
<style type="text/css">
	.st0{fill:#FFFFFF;}
</style>
<g>
	<g>
		<path class="st0" d="M173.8,133.2c1.1,0,2.1-0.1,3.2-0.1c2.1-0.1,4.2-0.1,6.3-0.1c2.1,0,4.2,0,6.3,0c2.1,0,4.2,0,6.3,0
			c8.3,0.1,16.4,0.4,24.2,1c7.7,0.5,15.1,1.3,21.9,2.1c6.8,0.8,13,1.8,18.4,2.7c1.4,0.2,2.7,0.5,3.9,0.7c1.3,0.2,2.5,0.5,3.7,0.7
			c1.2,0.2,2.3,0.5,3.4,0.7c0.5,0.1,1.1,0.2,1.6,0.3c0.5,0.1,1,0.2,1.5,0.3c1.9,0.4,3.6,0.8,5.2,1.1c1.5,0.3,2.7,0.6,3.8,0.9
			c2.1,0.5,3.2,0.7,3.2,0.7s-0.9-0.4-2.7-1c-0.9-0.3-2-0.7-3.3-1.2c-1.3-0.4-2.9-1-4.7-1.5c-0.4-0.1-0.9-0.3-1.4-0.4
			c-0.5-0.1-1-0.3-1.5-0.4c-1-0.3-2.1-0.6-3.2-0.9c-1.1-0.3-2.3-0.6-3.5-1c-1.2-0.3-2.5-0.7-3.8-1c-5.4-1.3-11.6-2.7-18.7-4
			c-1.8-0.3-3.6-0.6-5.4-0.9c-1.9-0.3-3.8-0.6-5.7-0.9c-3.9-0.6-8-1.1-12.1-1.5c-8.4-0.9-17.3-1.6-26.4-1.9c-1.1,0-2.3-0.1-3.4-0.1
			c-1.1,0-2.3-0.1-3.5-0.1c-2.3,0-4.6-0.1-6.9-0.1c-2.3,0-4.6,0-7,0c-1.2,0-2.3,0-3.5,0.1c-1.2,0-2.3,0.1-3.5,0.1
			c-4.7,0.2-9.3,0.4-13.9,0.7c-1.2,0.1-2.3,0.2-3.5,0.3l-0.9,0.1l-0.5,0l-0.2,0l-0.1,0l-0.4,0.1l-1.4,0.2c-2,0.2-4,0.4-6,0.6
			c-4.1,0.4-8.2,0.8-12.4,1.1c-2.1,0.1-4.2,0.3-6.3,0.4c-1.1,0.1-2.1,0.1-3.2,0.2c-1,0.1-2.1,0.1-3.2,0.1c-1.1,0-2.1,0.1-3.2,0.1
			c-1.1,0-2.1,0.1-3.2,0.1c-1.1,0-2.1,0.1-3.2,0.1c-1.1,0-2.1,0-3.2,0.1c-1.1,0-2.1,0-3.1,0.1c-1.1,0-2.1,0-3.1,0c-1,0-2.1,0-3.1,0
			c-1,0-2.1,0-3.1,0c-2,0-4.1-0.1-6.1-0.2c-1,0-2-0.1-2.9-0.1c-1,0-1.9-0.1-3-0.1c-2.1-0.1-4.2-0.3-6.3-0.4
			c-1.9-0.2-3.7-0.3-5.6-0.5c-7.6-0.7-14.9-1.7-21.5-2.8c-6.6-1.1-12.6-2.3-17.9-3.5c-5.3-1.1-9.8-2.3-13.5-3.2
			c-3.7-1-6.5-1.8-8.5-2.3c-1.9-0.6-2.9-0.9-2.9-0.9s0.2,0.1,0.6,0.3c0.4,0.2,1,0.5,1.8,0.8c0.8,0.4,1.8,0.8,3,1.3
			c0.6,0.2,1.3,0.5,2,0.8c0.7,0.3,1.5,0.6,2.3,0.9c0.8,0.3,1.7,0.6,2.6,1c0.9,0.3,1.9,0.7,3,1c1.1,0.4,2.1,0.7,3.3,1.1
			c1.2,0.4,2.4,0.7,3.6,1.1c5.1,1.5,11,3.2,17.9,4.7c6.9,1.5,14.6,2.9,23,4.1c1.1,0.1,2.1,0.3,3.2,0.4c0.5,0.1,1.1,0.1,1.6,0.2
			l0.8,0.1l0.4,0.1l0.2,0l0.4,0c2.1,0.2,4.2,0.4,6.3,0.6c1,0.1,2.2,0.2,3.4,0.2c1.2,0.1,2.3,0.2,3.5,0.2c2.4,0.2,4.6,0.3,6.9,0.4
			c1.2,0,2.3,0.1,3.5,0.1c1.1,0,2.3,0.1,3.5,0.1c1.2,0,2.3,0.1,3.5,0.1c1.2,0,2.3,0,3.5,0c1.2,0,2.3,0,3.5,0c1.2,0,2.3,0,3.5,0
			c1.2,0,2.3,0,3.5-0.1c1.2,0,2.3-0.1,3.5-0.1c9.2-0.3,18.4-0.9,27.2-1.7c2.2-0.2,4.4-0.5,6.6-0.7l1.6-0.2l0,0l0.2,0l0.3,0l0.7-0.1
			c1-0.1,2-0.2,2.9-0.3c4.1-0.3,8.2-0.6,12.4-0.8C171.7,133.3,172.7,133.3,173.8,133.2z"/>
		<path class="st0" d="M284.5,153.2c-0.7-0.3-1.8-0.8-3.2-1.3c-0.7-0.3-1.5-0.6-2.4-0.9c-0.9-0.3-1.9-0.7-2.9-1
			c-0.5-0.2-1.1-0.4-1.7-0.6c-0.6-0.2-1.2-0.4-1.8-0.6c-1.2-0.4-2.5-0.8-4-1.2c-1.4-0.4-2.9-0.8-4.4-1.2c-1.6-0.4-3.2-0.8-4.9-1.2
			c-1.7-0.4-3.5-0.8-5.4-1.2c-0.9-0.2-1.9-0.4-2.8-0.5c-1-0.2-1.9-0.4-2.9-0.5c-1.9-0.4-4-0.7-6-1c-2.1-0.3-4.1-0.6-6.3-0.9
			c-2.1-0.2-4.3-0.5-6.4-0.7c-1.1-0.1-2.2-0.2-3.2-0.3l-1.6-0.2l-1.6-0.1l-3.2-0.3c-1.1-0.1-2.2-0.1-3.2-0.2
			c-2.2-0.2-4.3-0.2-6.4-0.3c-4.2-0.2-8.3-0.3-12.2-0.3c-2,0-3.9,0-5.7,0.1c-1.9,0-3.7,0.1-5.4,0.2c-1.7,0.1-3.4,0.1-5,0.2
			c-1.6,0.1-3.2,0.2-4.6,0.3c-2.9,0.2-5.5,0.5-7.8,0.8c-2.3,0.3-4.2,0.5-5.8,0.8c-1.6,0.2-2.7,0.5-3.5,0.6c-0.8,0.2-1.2,0.2-1.2,0.2
			s0.5,0,1.5,0c0.9,0,2.4,0,4.1,0c1.8,0,3.9,0,6.4,0c2.5,0,5.2,0,8.2,0c3,0,6.3,0.1,9.7,0.1c3.4,0.1,7.1,0.2,10.8,0.3
			c0.9,0,1.9,0.1,2.8,0.1c0.9,0,1.9,0.1,2.9,0.1c1,0.1,1.9,0.1,2.9,0.2c1,0,1.9,0.1,2.9,0.2c1,0.1,2,0.1,3,0.2c1,0.1,2,0.1,3,0.2
			c1,0.1,2,0.1,3,0.2l3,0.2l1.5,0.1l1.5,0.1c1,0.1,2,0.2,3,0.3c2,0.2,3.9,0.4,5.9,0.6c1,0.1,1.9,0.2,2.9,0.3c1,0.1,1.9,0.2,2.9,0.3
			c0.9,0.1,1.9,0.2,2.8,0.4c0.9,0.1,1.9,0.2,2.8,0.4c1.8,0.3,3.7,0.5,5.4,0.8c1.8,0.3,3.5,0.5,5.2,0.8c1.7,0.3,3.3,0.6,4.9,0.8
			c1.6,0.3,3.1,0.6,4.5,0.9c1.5,0.3,2.8,0.6,4.2,0.8c1.3,0.3,2.6,0.5,3.8,0.8c2.3,0.5,4.4,0.9,6.1,1.3c1.7,0.4,3,0.7,4,0.9
			c0.9,0.2,1.4,0.3,1.4,0.3S285.3,153.6,284.5,153.2z"/>
	</g>
	<path class="st0" d="M296.3,24.3"/>
	<g>
		<path class="st0" d="M292.4,52.3c-0.5,1.4-2,2.1-3.4,1.6c-1.4-0.5-2.2-2-1.7-3.4c-2.3,2.6-6.1,7.5-8.7,10.6c0.5,0.5,1.1,1,1.7,1.4
			l6.4-8.1l-5.1,8.9c3.3,2,7.2,2.9,11.1,2.5C292.8,62,292.7,55.7,292.4,52.3z"/>
		<path class="st0" d="M291.6,52c-0.3,0.9-1.3,1.4-2.2,1c-0.9-0.3-1.4-1.3-1.1-2.2c0.3-0.9,1.3-1.4,2.2-1
			C291.4,50.1,291.9,51.1,291.6,52z"/>
		<path class="st0" d="M291.7,41.2l-2.6,7.7c0.5-0.2,1.2-0.2,1.8,0c0.6,0.2,1.1,0.6,1.4,1.1l3.1-9.1L291.7,41.2z"/>
		<path class="st0" d="M212.6,23.2c1-3.9,18.7-3.3,33.5,0.6c11.4,3,30.2,13.3,29.4,16.1l-0.4,1.5l23.5-2L249.1,3.9L194,12.6
			l18.2,12.2L212.6,23.2z"/>
		<path class="st0" d="M245.6,26c-13.9-3.7-30.4-4.3-31.4-0.6l-2.2,8.4h24.9c4.4,0,8.5,0.7,12.2,2.2c3.7,1.5,7,3.6,9.6,6.3
			c2.7,2.7,4.8,6,6.2,9.6c1.4,3.6,2.2,7.5,2.2,11.7l6-22.5C273.8,38.5,256.3,28.9,245.6,26z"/>
	</g>
	<g>
		<g>
			<path class="st0" d="M113.3,36.4l-30,80.3h-1.5L60,70l-22,46.9h-1.4L6.9,36.4h16.4L39,80.5l20.4-44.1h1l20.4,44.2l16-44.2H113.3z
				"/>
			<path class="st0" d="M188.6,38.3l-44.8,64.2H187v14.3h-70.3V115l44.9-64.4h-41.5V36.4h68.5V38.3z"/>
			<path class="st0" d="M215.7,116.8h-15.4V36.3h36.5c4.1,0,7.9,0.7,11.3,2c3.4,1.4,6.3,3.3,8.8,5.7c2.4,2.5,4.3,5.4,5.7,8.8
				c1.4,3.4,2,7.1,2,11.2c0,6.1-1.5,11.4-4.6,15.9c-3,4.5-7.1,7.8-12.2,9.8c6.8,8.9,13.4,17.9,20,27h-18.3
				c-3.2-4.2-6.4-8.4-9.4-12.6c-3.1-4.2-6.1-8.6-9.2-13h-15.2V116.8z M215.7,77.5h21.1c1.4,0,2.8-0.3,4.3-0.8c1.5-0.5,2.8-1.4,4-2.5
				c1.2-1.1,2.1-2.5,2.9-4.2c0.8-1.7,1.2-3.7,1.2-5.9c0-1.2-0.2-2.6-0.4-4.2c-0.3-1.6-0.9-3.1-1.8-4.6c-0.9-1.5-2.1-2.7-3.7-3.7
				c-1.6-1-3.8-1.5-6.5-1.5h-21.1V77.5z"/>
		</g>
	</g>
	<g>
		<g>
			<path class="st0" d="M48.4,164.5l-3.2-10l-3.3,10h-1.4l-4-11.9h1.5l3.3,10.3l3.2-10.3l1.4,0l3.3,10.3l3.2-10.3h1.4l-4,11.9H48.4z
				"/>
			<path class="st0" d="M59.8,164.5h-1.3v-4l-4.6-7.9h1.4l3.9,6.2l3.8-6.2h1.4l-4.5,7.8V164.5z"/>
			<path class="st0" d="M71,152.6c3.5,0,6.1,2.6,6.1,6c0,3.4-2.7,6-6.2,6h-4.8v-11.9H71z M67.6,163.2H71c2.7,0,4.7-2,4.7-4.6
				c0-2.7-2.1-4.7-4.8-4.7h-3.4V163.2z"/>
			<path class="st0" d="M80.3,163.2h8l0,1.3h-9.7v-1.1l7.9-9.5h-7.7v-1.3h9.5v1.1L80.3,163.2z"/>
			<path class="st0" d="M90.8,164.5v-11.9h1.4v11.9H90.8z"/>
			<path class="st0" d="M96.8,161.5l-1.3,3h-1.4l5.3-11.9h1.4l5.3,11.9h-1.5l-1.3-3H96.8z M100.1,154.1l-2.7,6h5.3L100.1,154.1z"/>
			<path class="st0" d="M114.8,164.5h-6.6v-6.7l-1.5,0.4l-0.3-1l1.8-0.5v-4.2h1.4v3.8l2.9-0.8l0.3,1l-3.1,0.9l0,5.8h5.2V164.5z"/>
			<path class="st0" d="M122.4,163.2h8l0,1.3h-9.7v-1.1l7.9-9.5h-7.7v-1.3h9.5v1.1L122.4,163.2z"/>
			<path class="st0" d="M134,161.5l-1.3,3h-1.4l5.3-11.9h1.4l5.3,11.9h-1.5l-1.3-3H134z M137.2,154.1l-2.7,6h5.3L137.2,154.1z"/>
			<path class="st0" d="M150.5,160.7c-0.3,0-0.5,0-0.8,0h-3.2v3.8h-1.4v-11.9h4.5c3,0,4.7,1.5,4.7,4c0,2-1,3.3-2.7,3.9l2.8,4.1h-1.5
				L150.5,160.7z M149.7,159.4c2.2,0,3.4-0.9,3.4-2.8c0-1.8-1.2-2.7-3.4-2.7h-3.2v5.5H149.7z"/>
			<path class="st0" d="M158.1,163.2h8l0,1.3h-9.7v-1.1l7.9-9.5h-7.7v-1.3h9.4v1.1L158.1,163.2z"/>
			<path class="st0" d="M178.6,164.5c-0.7,0.9-0.9,1.5-0.9,1.9c0,0.4,0.3,0.6,0.6,0.6c0.3,0,0.6-0.2,0.9-0.6l0.4,0.5
				c-0.3,0.5-0.9,0.9-1.5,0.9c-0.6,0-1.3-0.4-1.3-1.3c0-0.6,0.3-1.3,0.9-2.1h-0.4l-1.4-3h-6.5l-1.3,3h-1.4l5.3-11.9h1.4l5.3,11.9
				H178.6z M175.7,160.2l-2.7-6.1l-2.7,6.1H175.7z"/>
			<path class="st0" d="M185.7,152.6c3.5,0,6.1,2.6,6.1,6c0,3.4-2.7,6-6.2,6h-4.8v-11.9H185.7z M182.2,163.2h3.5
				c2.6,0,4.7-2,4.7-4.6c0-2.7-2.1-4.7-4.8-4.7h-3.4V163.2z"/>
			<path class="st0" d="M195,163.2h8l0,1.3h-9.7v-1.1l7.9-9.5h-7.7v-1.3h9.5v1.1L195,163.2z"/>
			<path class="st0" d="M206.5,161.5l-1.3,3h-1.4l5.3-11.9h1.4l5.3,11.9h-1.5l-1.3-3H206.5z M209.8,154.1l-2.7,6h5.3L209.8,154.1z"
				/>
			<path class="st0" d="M226.2,164.5l-7.1-9.6v9.6h-1.4v-11.9h1.4l7.1,9.6v-9.6h1.3v11.9H226.2z"/>
			<path class="st0" d="M231.2,164.5v-11.9h1.4v11.9H231.2z"/>
			<path class="st0" d="M237.2,161.5l-1.3,3h-1.5l5.3-11.9h1.4l5.3,11.9H245l-1.3-3H237.2z M240.4,154.1l-2.6,6h5.3L240.4,154.1z"/>
		</g>
	</g>
	<g>
		<path class="st0" d="M79.8,176.1c0,2.1-1.3,3.4-3.4,3.4c-2.1,0-3.4-1.3-3.4-3.4v-4.7H74v4.7c0,1.6,0.9,2.5,2.5,2.5
			c1.5,0,2.4-0.9,2.4-2.5v-4.7h0.9V176.1z"/>
		<path class="st0" d="M87.8,179.4l-4.8-6.4v6.4h-0.9v-8h1l4.8,6.5v-6.5h0.9v8H87.8z"/>
		<path class="st0" d="M91.2,179.4v-8h0.9v8H91.2z"/>
		<path class="st0" d="M101.4,179.4l-2.2-6.8l-2.2,6.8h-0.9l-2.7-8h1l2.2,7l2.2-7l0.9,0l2.2,7l2.2-7h0.9l-2.7,8H101.4z"/>
		<path class="st0" d="M107.1,172.2v2.6h4.1v0.9h-4.1v2.8h4.7v0.9h-5.6v-8h5.5v0.9H107.1z"/>
		<path class="st0" d="M117.2,176.8c-0.2,0-0.4,0-0.5,0h-2.1v2.5h-0.9v-8h3.1c2,0,3.2,1,3.2,2.7c0,1.3-0.6,2.2-1.8,2.6l1.9,2.7h-1
			L117.2,176.8z M116.7,175.9c1.5,0,2.3-0.6,2.3-1.9c0-1.2-0.8-1.8-2.3-1.8h-2.1v3.7H116.7z"/>
		<path class="st0" d="M126.8,172l-0.4,0.9c-0.7-0.5-1.6-0.7-2.2-0.7c-1,0-1.7,0.4-1.7,1.1c0,2.1,4.5,1,4.5,3.9
			c0,1.3-1.2,2.2-2.9,2.2c-1.2,0-2.3-0.5-3.1-1.2l0.4-0.8c0.7,0.7,1.8,1.1,2.7,1.1c1.2,0,1.9-0.5,1.9-1.2c0-2.1-4.5-1-4.5-3.9
			c0-1.3,1.1-2.1,2.8-2.1C125.2,171.3,126.2,171.6,126.8,172z"/>
		<path class="st0" d="M131.7,179.4h-0.9v-2.7l-3.1-5.3h0.9l2.6,4.2l2.6-4.2h0.9l-3,5.3V179.4z"/>
		<path class="st0" d="M138.5,172.2v7.1h-0.9v-7.1H135v-0.9h6.2v0.9H138.5z"/>
		<path class="st0" d="M143.4,172.2v2.6h4v0.9h-4v2.8h4.7v0.9h-5.6v-8h5.5v0.9H143.4z"/>
		<path class="st0" d="M152.3,172.2v7.1h-0.9v-7.1h-2.6v-0.9h6.2v0.9H152.3z"/>
		<path class="st0" d="M165.8,175.4v2.9c-0.8,0.6-1.9,1.1-3,1.1c-2.3,0-4.2-1.8-4.2-4.1c0-2.3,1.9-4,4.2-4c1.1,0,2.2,0.4,3,1.1
			l-0.5,0.7c-0.7-0.6-1.5-0.9-2.4-0.9c-1.8,0-3.3,1.4-3.3,3.2c0,1.8,1.5,3.2,3.3,3.2c0.7,0,1.5-0.3,2.1-0.7v-2.4H165.8z"/>
		<path class="st0" d="M171.3,171.3c2.3,0,4.1,1.7,4.1,4c0,2.3-1.8,4-4.2,4H168v-8H171.3z M169,178.5h2.3c1.8,0,3.2-1.3,3.2-3.1
			c0-1.8-1.4-3.1-3.2-3.1H169V178.5z"/>
		<path class="st0" d="M177.6,177.3l-0.9,2h-1l3.6-8h0.9l3.6,8h-1l-0.9-2H177.6z M179.8,172.4l-1.8,4.1h3.6L179.8,172.4z"/>
		<path class="st0" d="M190.8,179.4l-4.8-6.4v6.4h-0.9v-8h1l4.8,6.5v-6.5h0.9v8H190.8z M188.7,170.3h-0.9l1.4-1.6l0.9,0.4
			L188.7,170.3z"/>
		<path class="st0" d="M199.1,172l-0.4,0.9c-0.7-0.5-1.6-0.7-2.2-0.7c-1,0-1.7,0.4-1.7,1.1c0,2.1,4.5,1,4.5,3.9
			c0,1.3-1.2,2.2-2.9,2.2c-1.2,0-2.3-0.5-3.1-1.2l0.4-0.8c0.7,0.7,1.8,1.1,2.7,1.1c1.2,0,1.9-0.5,1.9-1.2c0-2.1-4.5-1-4.5-3.9
			c0-1.3,1.1-2.1,2.8-2.1C197.5,171.3,198.5,171.6,199.1,172z"/>
		<path class="st0" d="M203.7,175.6l-1.6,1.7v2.1h-0.9v-8h0.9v4.6l4.3-4.6h1.1l-3.2,3.5l3.4,4.5h-1.1L203.7,175.6z"/>
		<path class="st0" d="M209.2,179.4v-8h0.9v8H209.2z"/>
	</g>
</g>
</svg>
