<svg id="Warstwa_1" data-name="Warstwa 1" xmlns="http://www.w3.org/2000/svg" viewBox="0 0 500 210"><defs><style>.cls-1{fill:#fff;}</style></defs><polygon class="cls-1" points="113.4 15.27 113.4 3.79 91.18 3.79 91.18 14.55 91.18 15.26 90.46 15.26 77.56 15.26 76.84 15.26 76.84 14.55 76.84 3.79 53.91 3.79 53.91 14.55 53.91 15.26 53.19 15.26 40.29 15.26 39.57 15.26 39.57 14.55 39.57 3.79 17.35 3.79 17.35 15.27 25.24 15.27 25.95 15.27 25.95 15.99 25.95 25.3 104.8 25.3 104.8 15.99 104.8 15.27 105.52 15.27 113.4 15.27"/><rect class="cls-1" x="88.31" y="71.89" width="11.47" height="11.47"/><rect class="cls-1" x="65.38" y="71.89" width="11.47" height="11.47"/><rect class="cls-1" x="76.84" y="60.42" width="11.47" height="11.47"/><rect class="cls-1" x="88.31" y="146.43" width="11.47" height="11.47"/><rect class="cls-1" x="65.38" y="146.43" width="11.47" height="11.47"/><rect class="cls-1" x="76.84" y="134.96" width="11.47" height="11.47"/><path class="cls-1" d="M76.85,167.48a36.63,36.63,0,0,1-11.47,1.88,17.2,17.2,0,1,1,0-34.4V123.49a28.67,28.67,0,1,0,0,57.34,51,51,0,0,0,22.93-5.73V157.9H76.84S76.85,167.15,76.85,167.48Z"/><path class="cls-1" d="M88.31,83.35H76.84V98.67a40.25,40.25,0,0,1-14.33,1.89A11.48,11.48,0,0,1,51,89.09V60.42H39.57c0,4.34,0,24.82,0,28.67A22.93,22.93,0,0,0,62.51,112a52.15,52.15,0,0,0,25.8-5.73v-8.6h0Z"/><path class="cls-1" d="M65.38,206.21A62.65,62.65,0,0,1,2.73,143.56V40.78H128V143.56a62.65,62.65,0,0,1-62.64,62.65ZM7.61,45.65v97.91a57.77,57.77,0,0,0,115.54,0V45.65Z"/><path class="cls-1" d="M190.6,46.09V68c0,9.22-5.25,16.23-16.87,16.23-11.46,0-16.6-6.42-16.6-15.48V46.09h8.3V67.4c0,5.68,2.3,9.75,8.41,9.75s8.46-4.07,8.46-9.85V46.09Z"/><path class="cls-1" d="M227.34,62.37V83.31h-8V65.8c0-4.13-2.09-5.89-5.51-5.89a9.13,9.13,0,0,0-8.09,5.14V83.31h-8V53.05h8v4.5a13.22,13.22,0,0,1,10.6-5.14C223.06,52.41,227.34,56.74,227.34,62.37Z"/><path class="cls-1" d="M234.05,44c0-2.63,2-4.34,4.77-4.34a4.35,4.35,0,1,1,0,8.68C236,48.34,234.05,46.62,234.05,44Zm.7,9h8V83.31h-8Z"/><path class="cls-1" d="M293,53.05l-8.4,30.26H275l-4.92-19.39-4.93,19.39h-9.64L247,53.05h8.57l5.15,21.1,5.62-21.1h7.77l5.57,21.1,5.14-21.1Z"/><path class="cls-1" d="M325.28,70H303.05c.27,4.5,3.49,7.4,8.73,7.4a9.82,9.82,0,0,0,8-3.81l4.72,5.31c-3.91,4-8.3,5.25-13.39,5.25-9.7,0-16-6.32-16-16,0-8.73,5.89-15.85,15.26-15.85C319.93,52.3,325.82,59.1,325.28,70ZM303.21,64.4h13.93c-.75-3.8-3.37-5.24-6.75-5.24S304.07,60.87,303.21,64.4Z"/><path class="cls-1" d="M348.75,52.25l-.11,8.62c-4.55-.38-7.5,1.23-9.32,4.34v18.1h-8V53.05h8v5.19C341.73,54.49,345.16,52.3,348.75,52.25Z"/><path class="cls-1" d="M351.38,78.22l5.68-4.92a8,8,0,0,0,7.55,4.33c3.16,0,5.25-1.12,5.25-3,0-2.09-2.3-2.52-3.48-2.78l-4.61-1c-4.76-1.07-8.89-3.48-8.89-9.05,0-5.84,4.61-9.43,12.11-9.43a16.63,16.63,0,0,1,11.35,4.23L372,62.37a9.5,9.5,0,0,0-7.49-3.54c-2.52,0-4,.91-4,2.52s1.72,2.25,3.32,2.63l4.71,1.12c3.22.75,9.11,2.57,9.11,8.89,0,6-4.76,10.07-13,10.07C359.68,84.06,355.24,83,351.38,78.22Z"/><path class="cls-1" d="M439.41,81.76a17.69,17.69,0,0,1-8.84,2.3c-6.1,0-9.9-3.1-9.9-10.07V59.26h-4.8V53.05h4.8V46.14h8v6.91H437v6.21h-8.37V72.81c0,2.84,1.6,3.75,3.75,3.75a8.88,8.88,0,0,0,4.92-1.6Z"/><path class="cls-1" d="M497.27,81.76a17.72,17.72,0,0,1-8.84,2.3c-6.11,0-9.91-3.1-9.91-10.07V59.26h-4.79V53.05h4.79V46.14h8v6.91h8.37v6.21H486.5V72.81c0,2.84,1.61,3.75,3.75,3.75a8.91,8.91,0,0,0,4.93-1.6Z"/><path class="cls-1" d="M471.42,70H449.19c.27,4.5,3.49,7.4,8.73,7.4a9.81,9.81,0,0,0,8-3.81l4.72,5.31c-3.91,4-8.3,5.25-13.39,5.25-9.7,0-16-6.32-16-16,0-8.73,5.89-15.85,15.26-15.85C466.07,52.3,472,59.1,471.42,70ZM449.36,64.4h13.92c-.75-3.8-3.37-5.24-6.75-5.24S450.21,60.87,449.36,64.4Z"/><path class="cls-1" d="M174.8,153.23c-11.41,0-19.23-8.14-19.23-19.6s7.93-19.76,19.13-19.76c7,0,12.9,3.32,16,8.35L184.39,127a10.39,10.39,0,0,0-9.48-6c-6.27,0-10.61,4.77-10.61,12.69,0,7.61,4.23,12.43,10.77,12.43,5.25,0,8.84-3.16,9.32-7.5h-9.75v-6.69h18.05v4.18C192.69,146.54,185.3,153.23,174.8,153.23Z"/><path class="cls-1" d="M229.82,110v42.15h-6.64l-.48-3.59c-2.09,2.63-5.95,4.45-10.34,4.45-7.82,0-14.84-5.94-14.84-15.85,0-9.54,6.65-16.07,14.95-16.07a13.22,13.22,0,0,1,9.37,3.59V110Zm-8,27.05c0-5.2-3-8.68-7.93-8.68s-8,3.75-8,8.73,2.89,8.63,8,8.63S221.84,142.25,221.84,137.06Z"/><path class="cls-1" d="M262.14,130.63v21.53h-6.26l-.59-3.26a12,12,0,0,1-9.11,4c-5.84,0-9.64-3.53-9.64-8.73,0-7.33,7.34-9.48,17.62-11.46v-.37c0-3.06-1.93-4-4.71-4-3.43,0-6.48,1.61-8.89,3.27l-2.73-6.7A21.75,21.75,0,0,1,250,121.15C257.43,121.15,262.14,124.58,262.14,130.63Zm-8,12.7v-5.15c-6.1,1.29-9.48,2.41-9.48,5.31,0,1.82,1.45,2.84,3.65,2.84A7.08,7.08,0,0,0,254.16,143.33Z"/><path class="cls-1" d="M303.66,147.08l5.68-4.93a8,8,0,0,0,7.55,4.34c3.16,0,5.25-1.13,5.25-3.06,0-2.09-2.31-2.51-3.48-2.78l-4.61-1c-4.77-1.07-8.89-3.48-8.89-9,0-5.84,4.6-9.43,12.1-9.43a16.66,16.66,0,0,1,11.36,4.23l-4.34,5.84a9.5,9.5,0,0,0-7.5-3.53c-2.52,0-4,.91-4,2.51s1.71,2.25,3.32,2.63l4.71,1.12c3.22.75,9.11,2.57,9.11,8.89,0,5.95-4.77,10.07-13,10.07C312,152.91,307.51,151.84,303.66,147.08Z"/><path class="cls-1" d="M348.55,140.43l-5.09,5.15v6.58h-8V109.31h8v26L357,121.9h9.91l-12.69,12.8,13.23,17.46h-10Z"/><path class="cls-1" d="M370.84,112.85c0-2.63,2-4.34,4.77-4.34a4.35,4.35,0,1,1,0,8.68C372.82,117.19,370.84,115.47,370.84,112.85Zm.7,9.05h8v30.26h-8Z"/><path class="cls-1" d="M411.18,53.05V82c0,9.6-7.12,14.18-17.14,14.18A22.6,22.6,0,0,1,381,92.42L384.71,86A15.81,15.81,0,0,0,394,89c5.81,0,9.22-2.34,9.22-7.8v-1a9.31,9.31,0,0,1-7.87,3.73c-7.78,0-13.78-5.88-13.78-15V53.05h8.32V69c0,4.51,2.58,7.68,6.82,7.68s6.51-3.2,6.51-7.73V53.05Z"/><path class="cls-1" d="M287.9,121.25a13.24,13.24,0,0,0-10.61,5.15v-4.5h-8v30.26h8V133.9a9.15,9.15,0,0,1,8.09-5.15c3.43,0,5.52,1.78,5.52,5.89v17.52h8V131.21C298.88,125.59,294.59,121.25,287.9,121.25Zm-1-13.13-5,9.46h5.92l7.71-9.46Z"/></svg>